<svg width="169" height="35" viewBox="0 0 169 35" fill="none" xmlns="http://www.w3.org/2000/svg">
  <g clip-path="url(#clip0_7689_347)">
    <rect width="169" height="35" rx="10" fill="url(#paint0_linear_7689_347)"/>
    <mask id="mask0_7689_347" style="mask-type:alpha" maskUnits="userSpaceOnUse" x="0" y="0" width="169" height="35">
      <rect width="169" height="35" rx="10" fill="#2A2A2A"/>
    </mask>
    <g mask="url(#mask0_7689_347)">
      <path d="M65.4556 24.3408C88.3162 29.0854 100.856 46.8445 104.268 55.131C84.9197 35.0482 57.375 33.4645 46.0213 35.183C62.7178 -10.6466 104.582 -8.1064 123.427 -1.10759C107.52 8.9444 105.026 37.5788 105.767 50.6396C97.7858 31.7683 79.0533 24.2567 70.6847 22.8598C82.1967 19.09 93.1948 23.2579 97.2548 25.8132C99.0322 14.58 104.561 5.42373 107.103 2.24978C84.5974 1.26731 69.9608 16.5678 65.4556 24.3408Z" fill="white" fill-opacity="0.2"/>
      <path d="M-23.4211 -77.6775C80.4929 -158.518 99.8185 -279.576 96.4919 -330C48.4798 -180.255 -86.9996 -103.77 -148.738 -84.2459C49.692 106.215 255.27 -10.7057 333.256 -92.9738C227.758 -104.311 143.954 -243.042 115.239 -310.991C121.754 -195.636 45.6125 -111.052 6.72754 -83.1796C74.3656 -92.7148 119.672 -141.149 133.87 -164.175C170.789 -111.737 221.531 -79.1352 242.286 -69.3891C130.82 -8.47407 18.7037 -49.5335 -23.4211 -77.6775Z" fill="url(#paint1_linear_7689_347)" fill-opacity="0.3" style="mix-blend-mode:overlay"/>
    </g>

    <!-- ОРИГИНАЛЬНАЯ иконка (щит + галочка) — как в твоём старом коде -->
    <g clip-path="url(#clip1_7689_347)">
      <path d="M29.2905 13.07L26.158 12.0255C26.0554 11.9913 25.9446 11.9913 25.842 12.0255L22.7095 13.07C22.2115 13.2354 21.7782 13.5536 21.4713 13.9794C21.1644 14.4051 20.9995 14.9167 21 15.4415V18C21 21.7815 25.6 23.87 25.797 23.957C25.8609 23.9854 25.9301 24.0001 26 24.0001C26.0699 24.0001 26.1391 23.9854 26.203 23.957C26.4 23.87 31 21.7815 31 18V15.4415C31.0005 14.9167 30.8356 14.4051 30.5287 13.9794C30.2218 13.5536 29.7885 13.2354 29.2905 13.07ZM28.359 16.8585L26.223 18.9945C26.1356 19.0825 26.0316 19.1522 25.917 19.1997C25.8024 19.2472 25.6795 19.2714 25.5555 19.271H25.539C25.4124 19.2691 25.2876 19.2415 25.172 19.1899C25.0564 19.1383 24.9525 19.0639 24.8665 18.971L23.7135 17.771C23.6636 17.7247 23.6236 17.6686 23.5961 17.6063C23.5686 17.544 23.5542 17.4767 23.5536 17.4086C23.553 17.3405 23.5664 17.273 23.5929 17.2102C23.6193 17.1474 23.6583 17.0907 23.7075 17.0436C23.7566 16.9964 23.8149 16.9598 23.8787 16.936C23.9426 16.9122 24.0106 16.9017 24.0786 16.9051C24.1466 16.9085 24.2132 16.9258 24.2744 16.9558C24.3355 16.9859 24.3898 17.0282 24.434 17.08L25.556 18.25L27.65 16.15C27.7443 16.0589 27.8706 16.0085 28.0017 16.0097C28.1328 16.0108 28.2582 16.0634 28.3509 16.1561C28.4436 16.2488 28.4962 16.3742 28.4973 16.5053C28.4985 16.6364 28.4481 16.7627 28.357 16.857L28.359 16.8585Z" fill="white"/>
    </g>

    <!-- Редактируемый текст — по центру кнопки, выровнен вертикально -->
    <text x="84.5" y="18" text-anchor="middle" dominant-baseline="middle"
          fill="white" font-size="14" font-family="Arial, Helvetica, sans-serif" font-weight="600">
      Нагибатор
    </text>

    <rect x="1" y="1" width="167" height="33" rx="9" stroke="url(#paint2_linear_7689_347)" stroke-width="2"/>
  </g>

  <defs>
    <linearGradient id="paint0_linear_7689_347" x1="169" y1="35" x2="1.12391e-06" y2="-5.4269e-06" gradientUnits="userSpaceOnUse">
      <stop stop-color="#4A148C"/>
      <stop offset="0.501962" stop-color="#8E24AA"/>
      <stop offset="1" stop-color="#4A148C"/>
    </linearGradient>
    <linearGradient id="paint1_linear_7689_347" x1="94.2335" y1="19.0034" x2="93.5358" y2="-9.08056" gradientUnits="userSpaceOnUse">
      <stop stop-color="white"/>
      <stop offset="1" stop-color="#999999" stop-opacity="0"/>
    </linearGradient>
    <linearGradient id="paint2_linear_7689_347" x1="84" y1="35" x2="84" y2="-4.8126e-06" gradientUnits="userSpaceOnUse">
      <stop stop-color="#BA68C8"/>
      <stop offset="1" stop-color="#AB47BC" stop-opacity="0"/>
    </linearGradient>
    <clipPath id="clip0_7689_347">
      <rect width="169" height="35" fill="white"/>
    </clipPath>
    <clipPath id="clip1_7689_347">
      <rect width="12" height="12" fill="white" transform="translate(20 12)"/>
    </clipPath>
  </defs>
</svg>
